PathFileType	4	(X/Y/Z)	./resultDataOpenSim/trcMotMarkerGrf/sub10/qtm-01-03.trc
DataRate	CameraRate	NumFrames	NumMarkers	Units	OrigDataRate	OrigDataStartFrame	OrigNumFrames
250.000000	250.000000	10	24	m	250.000000	181	482
Frame#	Time	L.Toe.Tip			R.Toe.Tip			L.Ankle.Lat			R.Ankle.Lat			L.Ankle.Med			R.Ankle.Med			L.Heel			R.Heel			L.Knee.Lat			R.Knee.Lat			L.Knee.Med			R.Knee.Med			L.Thigh.Upper			R.Thigh.Upper			L.ASIS			R.ASIS			V.Sacral			L.Acromium			R.Acromium			C7			L.Elbow			R.Elbow			L.Wrist.Lat			R.Wrist.Lat
		X1	Y1	Z1	X2	Y2	Z2	X3	Y3	Z3	X4	Y4	Z4	X5	Y5	Z5	X6	Y6	Z6	X7	Y7	Z7	X8	Y8	Z8	X9	Y9	Z9	X10	Y10	Z10	X11	Y11	Z11	X12	Y12	Z12	X13	Y13	Z13	X14	Y14	Z14	X15	Y15	Z15	X16	Y16	Z16	X17	Y17	Z17	X18	Y18	Z18	X19	Y19	Z19	X20	Y20	Z20	X21	Y21	Z21	X22	Y22	Z22	X23	Y23	Z23	X24	Y24	Z24

181	0.72	0.058222455	0.045239673	-0.064393057	-0.67661954	0.045838754	0.041189083	-0.072691632	0.066978425	-0.10752672	-0.70953572	0.18095804	0.085430789	-0.076888075	0.088709546	-0.02369416	-0.66530795	0.16887242	0.010173474	-0.14124532	0.035211509	-0.072498482	-0.74480524	0.211893	0.031525462	-0.08495288	0.45828218	-0.1320175	-0.39613637	0.41196893	0.12295688	-0.084889387	0.43726757	-0.011027444	-0.35159636	0.3911963	0.0023999258	-0.21385613	0.82285135	-0.19797674	-0.33854989	0.80359087	0.1684593	-0.19350652	0.92823563	-0.11327999	-0.24236774	0.89692199	0.12160373	-0.41469758	0.92065337	-0.046361581	-0.28778886	1.3804935	-0.16100282	-0.300085	1.3721746	0.16323193	-0.37927904	1.4062299	-0.0050033268	-0.4315755	1.0727643	-0.20839045	-0.30800998	1.0108759	0.20425686	-0.38833358	0.84102318	-0.25968489	-0.070224905	0.92759033	0.19430282
182	0.724	0.058497588	0.044864161	-0.064158296	-0.6714621	0.048086735	0.041528903	-0.072372611	0.066880679	-0.10735909	-0.69865082	0.18498321	0.086207711	-0.076730795	0.088357032	-0.023333562	-0.65504595	0.17193749	0.010648924	-0.14116501	0.035237709	-0.072403907	-0.73254442	0.2178032	0.032520321	-0.081761271	0.4579483	-0.1316739	-0.38376097	0.41113728	0.12408838	-0.082894461	0.436296	-0.010768474	-0.33720783	0.38882476	0.0035373712	-0.20791749	0.82388354	-0.19864754	-0.33089591	0.8031527	0.16781818	-0.18745872	0.92955599	-0.11385337	-0.23550273	0.89744129	0.12074435	-0.40896556	0.92185534	-0.044680031	-0.28113323	1.3814395	-0.16140998	-0.29384149	1.3729957	0.16273685	-0.37295308	1.4068862	-0.0055115171	-0.42308776	1.0735727	-0.2086829	-0.30457695	1.0118035	0.20308643	-0.38084506	0.84170856	-0.25980291	-0.067665416	0.92565513	0.19426487
183	0.728	0.058726045	0.044545554	-0.063939684	-0.66552417	0.050583026	0.04182237	-0.072104872	0.066803598	-0.1072553	-0.68746224	0.18898243	0.086955465	-0.076570199	0.088063093	-0.023058735	-0.64455685	0.17506946	0.011106858	-0.14111962	0.035259879	-0.072401508	-0.72015452	0.22350246	0.033647072	-0.078537032	0.4576796	-0.13128848	-0.37142714	0.41036154	0.12522966	-0.081103512	0.43536439	-0.010523754	-0.32281636	0.3867337	0.0046479135	-0.20206536	0.82494519	-0.19935734	-0.3233003	0.80271463	0.16723122	-0.18147517	0.93077049	-0.11443286	-0.22867446	0.89798087	0.11987308	-0.40458841	0.92353911	-0.041636132	-0.27448727	1.3823715	-0.16182562	-0.28761479	1.3738136	0.1623025	-0.36675355	1.4075626	-0.0059799466	-0.4152667	1.0742483	-0.20850869	-0.30118044	1.0127457	0.2019365	-0.37327564	0.84238784	-0.25992963	-0.065179251	0.92366947	0.19427842
184	0.732	0.058911611	0.044280983	-0.06368112	-0.65857026	0.05343864	0.042216169	-0.071872049	0.06674206	-0.10719737	-0.67607541	0.19293159	0.087653519	-0.076417446	0.087825659	-0.022857414	-0.63384858	0.17825672	0.011554553	-0.14109341	0.035276367	-0.072435513	-0.70799615	0.22888584	0.03486045	-0.075267336	0.45746334	-0.13090021	-0.35913802	0.40966646	0.12636156	-0.079474875	0.43449623	-0.010311448	-0.30849202	0.3850947	0.0056764771	-0.19634077	0.82602938	-0.20006816	-0.31576284	0.80229849	0.16673261	-0.17556101	0.93187487	-0.11500431	-0.22193361	0.89853518	0.11904116	-0.40125852	0.92558407	-0.037614114	-0.26783569	1.3832965	-0.16223634	-0.28142327	1.3746314	0.16192541	-0.36063728	1.4082791	-0.0065065804	-0.40818931	1.0748038	-0.20784129	-0.29782947	1.0136841	0.20084926	-0.36562835	0.84307031	-0.26005102	-0.062776788	0.92163393	0.19434955
185	0.736	0.059058464	0.044064345	-0.063400084	-0.6503877	0.056675922	0.042873263	-0.07167189	0.066673324	-0.10716279	-0.66463596	0.19678801	0.088258841	-0.076296009	0.087637643	-0.022715753	-0.6229589	0.18152234	0.011957938	-0.14108095	0.035284158	-0.072471942	-0.69628884	0.23379241	0.035985824	-0.071969456	0.45728096	-0.13055476	-0.34689872	0.40908127	0.1274531	-0.07796577	0.43371013	-0.010159622	-0.29433907	0.38405096	0.0065495454	-0.1907618	0.82711255	-0.20074416	-0.30827905	0.80194084	0.16634687	-0.16971092	0.93287176	-0.11554989	-0.21528922	0.89910863	0.11827005	-0.39776248	0.92750655	-0.034019565	-0.26114102	1.3842227	-0.16261849	-0.27527791	1.3754592	0.16161715	-0.35453637	1.4090446	-0.0072118413	-0.40157936	1.0753063	-0.20690304	-0.29453248	1.0146003	0.1998621	-0.35790326	0.84376613	-0.26015546	-0.060467635	0.91955	0.19448447
186	0.74	0.059172228	0.043887831	-0.063148397	-0.64087529	0.060167077	0.043846291	-0.071509668	0.06658642	-0.10713635	-0.65322084	0.20051689	0.08872972	-0.076210559	0.08749283	-0.022624204	-0.61192138	0.18485482	0.012287454	-0.1410791	0.035283866	-0.072497899	-0.68488356	0.23808402	0.036747578	-0.068686347	0.45711776	-0.13028034	-0.33471108	0.40864837	0.1284738	-0.076552194	0.43302772	-0.010113934	-0.28043133	0.38366847	0.0072414602	-0.18530491	0.82817444	-0.20136428	-0.30084523	0.80167608	0.166081	-0.16391899	0.93376629	-0.1160613	-0.20872977	0.89971108	0.11756822	-0.39310375	0.92892331	-0.032004325	-0.25438214	1.3851569	-0.16295186	-0.26918094	1.3763093	0.16138844	-0.34840605	1.409878	-0.008073456	-0.3951571	1.0758165	-0.20597578	-0.2912617	1.0155063	0.19896476	-0.3501033	0.84448063	-0.26024287	-0.058261091	0.91742091	0.1946825
187	0.744	0.059259789	0.043742865	-0.062964512	-0.63005865	0.063692062	0.045057089	-0.07138736	0.066493142	-0.10711491	-0.64178644	0.20410874	0.089047827	-0.076147296	0.08738789	-0.022575999	-0.60073295	0.18820242	0.012532427	-0.14108436	0.035278605	-0.072513205	-0.67350744	0.24173653	0.037014089	-0.065480498	0.45696124	-0.13008058	-0.32256744	0.40841907	0.12940312	-0.075275436	0.43245414	-0.010233789	-0.26680277	0.38390857	0.007770051	-0.17994363	0.82920698	-0.20191318	-0.29346283	0.8015294	0.16592498	-0.15817861	0.93456633	-0.11653775	-0.20227573	0.90035081	0.11696117	-0.38733485	0.92987904	-0.031504186	-0.24756629	1.3861044	-0.16323048	-0.2631253	1.3771931	0.16123381	-0.3422108	1.4108093	-0.0089221518	-0.38876099	1.0763544	-0.20517674	-0.28794422	1.0164504	0.19809616	-0.34223214	0.84521437	-0.26031553	-0.056162732	0.91525288	0.19493508
188	0.748	0.059327321	0.043622525	-0.062851409	-0.61804165	0.067059469	0.046391932	-0.071295083	0.066413941	-0.10710008	-0.63023213	0.20757113	0.089207944	-0.076088389	0.087321404	-0.022564613	-0.58932536	0.19150341	0.012706412	-0.14109508	0.03527244	-0.072522471	-0.66207189	0.24482153	0.036887247	-0.062406991	0.45680363	-0.12994718	-0.31045059	0.40844564	0.13022847	-0.074124286	0.43199539	-0.010512268	-0.25346628	0.38465791	0.0081598152	-0.17466947	0.830207	-0.20237261	-0.2861395	0.80152129	0.16587244	-0.15247615	0.93528752	-0.11697575	-0.19599069	0.90103168	0.11649143	-0.38112362	0.93064626	-0.031713488	-0.24071571	1.3870724	-0.1634599	-0.25710739	1.3781182	0.16113989	-0.3359303	1.4118575	-0.0096065045	-0.38233749	1.0769109	-0.20447157	-0.28450463	1.017475	0.19721205	-0.33428889	0.84596916	-0.26036691	-0.054175273	0.91305398	0.19523111
189	0.752	0.059378837	0.043522353	-0.06278691	-0.6049732	0.070176123	0.047780207	-0.071214031	0.066363867	-0.10709199	-0.61847487	0.21091424	0.08920221	-0.076023928	0.087292482	-0.022583248	-0.57761971	0.19471987	0.012826347	-0.14111246	0.035268828	-0.072532461	-0.65061293	0.24742263	0.036541741	-0.059478928	0.45664763	-0.1298705	-0.29833753	0.40877341	0.13093728	-0.072951331	0.43168164	-0.01084814	-0.24040804	0.38579273	0.008432937	-0.16947983	0.83116953	-0.20272438	-0.27888784	0.80166836	0.16594752	-0.14680565	0.93594851	-0.11736945	-0.18992056	0.90175731	0.11618627	-0.37500493	0.93141577	-0.031939974	-0.23385142	1.3880697	-0.16364774	-0.25113415	1.3790845	0.16109542	-0.32957397	1.4130164	-0.010105895	-0.37588942	1.0774729	-0.2037969	-0.28091661	1.0185922	0.19633073	-0.32627059	0.84674946	-0.26038577	-0.052302529	0.91083072	0.1955634
190	0.756	0.059416267	0.043439091	-0.062748467	-0.59104198	0.073026113	0.049187804	-0.071131419	0.066345646	-0.10709019	-0.60646325	0.21414391	0.089028101	-0.075956458	0.087298552	-0.022627548	-0.56559921	0.19783314	0.012875995	-0.14113786	0.035269232	-0.072550397	-0.63913059	0.24959183	0.036100635	-0.056676164	0.45650277	-0.12984453	-0.28620697	0.40943285	0.13151105	-0.071615442	0.43153703	-0.011144449	-0.22757116	0.38722421	0.0086236597	-0.16436653	0.83208756	-0.20295611	-0.27174201	0.80197455	0.16620227	-0.141173	0.93656127	-0.11771441	-0.18403413	0.90253898	0.11603549	-0.36918349	0.93223638	-0.031894132	-0.22699006	1.3891005	-0.16379447	-0.24520583	1.3800855	0.16108996	-0.32316746	1.4142638	-0.010479391	-0.36943229	1.0780337	-0.20311875	-0.27722181	1.0198055	0.19549674	-0.31817575	0.84755777	-0.26036651	-0.050547856	0.90858727	0.19592829
